<svg id="visual" viewBox="0 0 960 540" width="960" height="540" xmlns="http://www.w3.org/2000/svg" xmlns:xlink="http://www.w3.org/1999/xlink" version="1.1"><rect x="0" y="0" width="960" height="540" fill="#ffffff"></rect><g transform="translate(10.672936043784802 14.371369921938722)"><path d="M65.8 -98.3C85.8 -76.1 102.8 -57.5 115.3 -34C127.8 -10.4 135.7 18.1 123.2 34.9C110.6 51.6 77.6 56.5 53.7 75.6C29.8 94.6 14.9 127.8 -4.8 134.4C-24.5 141 -49 121.1 -78.3 103.8C-107.6 86.5 -141.8 71.8 -149.2 48.6C-156.6 25.3 -137.3 -6.5 -127.8 -43.3C-118.3 -80.2 -118.7 -122 -99 -144.3C-79.4 -166.6 -39.7 -169.3 -8.4 -157.7C22.9 -146.2 45.8 -120.4 65.8 -98.3" fill="none" stroke="#61d3e3" stroke-width="6"></path></g></svg>