<svg id="visual" viewBox="0 0 900 600" width="900" height="600" xmlns="http://www.w3.org/2000/svg" xmlns:xlink="http://www.w3.org/1999/xlink" version="1.1"><rect x="0" y="0" width="900" height="600" fill="#ffffff"></rect><defs><linearGradient id="grad1_0" x1="33.3%" y1="100%" x2="100%" y2="0%"><stop offset="20%" stop-color="#ffffff" stop-opacity="1"></stop><stop offset="80%" stop-color="#ffffff" stop-opacity="1"></stop></linearGradient></defs><defs><linearGradient id="grad2_0" x1="0%" y1="100%" x2="66.7%" y2="0%"><stop offset="20%" stop-color="#ffffff" stop-opacity="1"></stop><stop offset="80%" stop-color="#ffffff" stop-opacity="1"></stop></linearGradient></defs><g transform="translate(900, 600)"><path d="M-162.2 0C-153.1 -18.2 -144 -36.5 -137.7 -57C-131.3 -77.6 -127.7 -100.4 -114.7 -114.7C-101.7 -129.1 -79.2 -134.9 -58.6 -141.4C-37.9 -147.9 -18.9 -155.1 0 -162.2L0 0Z" fill="#5096c9"></path></g><g transform="translate(0, 0)"><path d="M162.2 0C151.3 19.4 140.3 38.9 128.4 53.2C116.6 67.5 103.9 76.6 94 94C84.2 111.5 77.3 137.2 62.1 149.9C46.9 162.6 23.4 162.4 0 162.2L0 0Z" fill="#5096c9"></path></g></svg>