<svg id="visual" viewBox="0 0 675 900" width="675" height="900" xmlns="http://www.w3.org/2000/svg" xmlns:xlink="http://www.w3.org/1999/xlink" version="1.1"><g transform="translate(365.2181570565872 395.49947302478233)"><path d="M104.9 -114C127 -106.4 130 -64.9 120 -34.1C110 -3.3 87 16.9 78.5 58.2C70 99.5 75.9 162.1 50.7 195.5C25.6 229 -30.5 233.4 -65.5 208.3C-100.4 183.2 -114.3 128.6 -137.1 82.4C-160 36.2 -191.8 -1.6 -177.2 -22C-162.6 -42.4 -101.6 -45.5 -64.4 -50.4C-27.1 -55.3 -13.6 -62.2 13.9 -78.7C41.4 -95.3 82.7 -121.6 104.9 -114" fill="#3eb2c2"></path></g></svg>