<svg id="visual" viewBox="0 0 250 400" width="250" height="400" xmlns="http://www.w3.org/2000/svg" xmlns:xlink="http://www.w3.org/1999/xlink" version="1.1"><g transform="translate(118.7978328411081 203.2199902020548)"><path d="M21.9 -27.2C31.5 -18.2 44.3 -14.1 54.7 -2.6C65.1 8.9 73.2 27.9 66.4 37.1C59.6 46.3 38 45.7 22.5 43.4C7 41 -2.5 37 -18.4 37C-34.2 37.1 -56.5 41.3 -56.5 35.5C-56.4 29.7 -34 13.8 -24.9 1.4C-15.8 -11.1 -20.1 -20.1 -18.2 -30.4C-16.3 -40.7 -8.1 -52.4 -1 -51.2C6.2 -50.1 12.4 -36.1 21.9 -27.2" fill="#3eb2c2"></path></g></svg>