<svg id="visual" viewBox="0 0 960 540" width="960" height="540" xmlns="http://www.w3.org/2000/svg" xmlns:xlink="http://www.w3.org/1999/xlink" version="1.1"><rect x="0" y="0" width="960" height="540" fill="#ffffff"></rect><g transform="translate(18.826889003288976 14.583002520407831)"><path d="M91.4 -135C103.4 -117 87.8 -70.3 91.8 -35.2C95.7 -0.2 119.2 23.1 119.2 43.6C119.2 64.1 95.8 81.8 72 90.7C48.2 99.7 24.1 99.8 -3.7 105C-31.5 110.1 -63.1 120.2 -92.7 113.1C-122.4 106.1 -150.1 81.9 -155.7 53.3C-161.4 24.6 -144.9 -8.5 -129.9 -38.4C-115 -68.3 -101.6 -94.8 -80.2 -109.7C-58.8 -124.6 -29.4 -127.8 5.1 -134.9C39.7 -141.9 79.4 -152.9 91.4 -135" fill="#61d3e3"></path></g></svg>