<svg id="visual" viewBox="0 0 675 900" width="675" height="900" xmlns="http://www.w3.org/2000/svg" xmlns:xlink="http://www.w3.org/1999/xlink" version="1.1"><g transform="translate(332.7404381085202 413.54770139159956)"><path d="M98.7 -120.2C118.7 -121.4 119.3 -80.2 126.5 -44.3C133.8 -8.4 147.7 22 152.6 62.7C157.4 103.3 153.1 154 126.1 181.3C99.2 208.5 49.6 212.3 4.8 205.6C-40 199 -79.9 182 -108 155.1C-136.1 128.3 -152.2 91.5 -141.4 61C-130.6 30.5 -92.9 6.3 -87.9 -34.7C-83 -75.6 -110.9 -133.3 -101.7 -135.5C-92.5 -137.8 -46.2 -84.7 -3.4 -80C39.4 -75.3 78.8 -119 98.7 -120.2" fill="#3eb2c2"></path></g></svg>