<svg id="visual3" viewBox="0 0 675 900" width="675" height="900" xmlns="http://www.w3.org/2000/svg" xmlns:xlink="http://www.w3.org/1999/xlink" version="1.1"><g transform="translate(319.3488124734681 494.387755670935)"><path d="M64.9 -81C102.6 -45.6 164.6 -42.8 180.3 -21.7C196 -0.6 165.6 38.7 135.1 65.2C104.5 91.8 74 105.6 42.7 116.7C11.4 127.8 -20.6 136.3 -42.9 125C-65.1 113.8 -77.6 82.9 -92.6 54.6C-107.6 26.3 -125.2 0.5 -137.3 -40.4C-149.4 -81.4 -156.1 -137.7 -132.3 -175.5C-108.5 -213.3 -54.2 -232.6 -20.3 -208.4C13.6 -184.2 27.1 -116.3 64.9 -81" fill="#3eb2c2"></path></g></svg>